<?xml version="1.0" encoding="UTF-8"?>
<svg id="Layer_1" data-name="Layer 1" xmlns="http://www.w3.org/2000/svg" viewBox="0 0 1892.91 186.1">
  <defs>
    <style>
      .cls-1 {
        fill: none;
      }
    </style>
  </defs>
  <g>
    <path d="M37.72,71.55l1.22.24,6.57-14.85c1.46-3.89,13.14-13.39,34.07-13.39,25.31,0,44.54,14.12,44.54,49.65v82.02h-37.48v-75.93c0-16.06-8.76-23.61-22.15-23.61-15.09,0-26.77,10.95-26.77,27.5v72.04H0V46.97h37.72v24.58Z"/>
    <path d="M192.68,0v30.67h-37.97V0h37.97ZM192.44,46.97v128.26h-37.72V46.97h37.72Z"/>
    <path d="M297.53,46.97v30.42h-28.96v97.84h-37.48v-97.84h-18.5v-30.42h18.5v-11.93c0-22.15,14.12-36.75,41.62-36.75,11.92,0,22.39,2.43,29.69,4.87l-6.08,27.26c-3.89-1.7-9-2.92-14.6-2.92-7.54,0-13.14,3.65-13.14,10.95v8.52h28.96Z"/>
    <path d="M362,133.37c0,8.52,4.38,12.17,11.93,12.17,4.14,0,8.27-.73,12.17-2.19l4.62,30.67c-7.54,2.68-16.06,4.38-27.02,4.38-24.58,0-39.43-11.2-39.43-35.05v-65.96h-16.06v-30.42h16.06v-28.23h37.72v28.23h26.53v30.42h-26.53v55.98Z"/>
    <path d="M444.36,182.29l2.92-8.03-47.7-120.23,34.8-11.44,27.5,75.93c1.7,4.87,2.68,8.03,3.41,12.41l3.65,19.71h1.7l3.89-19.96c.49-3.89,1.46-6.81,3.16-12.17l27.5-75.93,34.56,11.44-52.08,136.54c-9.01,23.12-23.85,32.37-48.92,32.37-8.76,0-15.33-.49-19.96-1.46v-31.88c2.68.49,5.11.73,7.3.73,9.49,0,15.82-.97,18.25-8.03Z"/>
    <polygon points="850.32 90.78 843.26 90.78 609.62 90.78 609.62 122.66 843.26 122.66 850.32 122.66 1083.96 122.66 1083.96 90.78 850.32 90.78"/>
    <path d="M1210.04,102.71v72.53h-37.72V46.97h37.72v24.58l1.22.49,6.33-14.85c3.41-6.57,18.01-13.63,32.86-13.63,17.04,0,33.1,8.03,39.18,29.69h1.22l6.33-15.33c2.92-7.06,17.77-14.36,35.29-14.36,23.85,0,43.08,15.58,43.08,49.65v82.02h-37.72v-75.93c0-16.06-8.03-23.61-20.93-23.61s-24.09,9.25-24.09,24.82v74.72h-37.72v-75.69c0-16.06-6.81-23.85-20.69-23.85-11.93,0-24.34,9.49-24.34,27.01Z"/>
    <path d="M1444.24,0v30.67h-37.97V0h37.97ZM1444,46.97v128.26h-37.72V46.97h37.72Z"/>
    <path d="M1512.7,71.55l1.22.24,6.57-14.85c1.46-3.89,13.14-13.39,34.07-13.39,25.31,0,44.54,14.12,44.54,49.65v82.02h-37.48v-75.93c0-16.06-8.76-23.61-22.15-23.61-15.09,0-26.77,10.95-26.77,27.5v72.04h-37.72V46.97h37.72v24.58Z"/>
    <path d="M1678.15,43.57c18.5,0,30.42,7.3,32.13,10.46l7.06,14.36,1.46-.24V4.87h37.48v170.36h-37.48v-21.17l-1.46-.24-7.06,14.36c-1.7,3.16-13.63,10.46-32.13,10.46-36.02,0-55.73-31.88-55.73-67.9s19.71-67.17,55.73-67.17ZM1690.57,148.7c17.52,0,28.23-12.66,28.23-38.21s-10.71-36.75-28.23-36.75c-19.23,0-28.96,14.36-28.96,37.24s9.74,37.72,28.96,37.72Z"/>
    <path d="M1836.45,148.22c13.14,0,19.96-3.89,19.96-11.44,0-6.81-7.3-9.25-27.26-12.41-29.45-4.62-45.03-17.52-45.03-38.21,0-29.21,25.07-42.83,55.49-42.83,19.96,0,39.43,5.84,52.57,14.6l-16.55,26.77c-9.25-6.08-22.88-10.71-36.51-10.71s-18.25,4.14-18.25,10.46c0,7.3,9,8.76,29.94,12.17,26.77,4.14,42.1,16.55,42.1,38.7,0,30.67-27.75,43.32-58.41,43.32-23.12,0-44.78-6.81-57.92-17.04l16.31-26.53c12.9,8.27,27.75,13.14,43.56,13.14Z"/>
  </g>
  <rect class="cls-1" x="-124.12" y="-124.87" width="2141.16" height="435.83"/>
</svg>